<?xml version="1.0" standalone="yes"?>
<svg xmlns="http://www.w3.org/2000/svg" width="100" height="100">
<path style="fill:#080707; stroke:none;" d="M0 0L0 100L100 100L100 0L0 0z"/>
<path style="fill:#d7bf5c; stroke:none;" d="M80.6034 12.0324C76.7975 14.9855 81.532 20.9662 85.3966 17.9676C89.2024 15.0145 84.468 9.03378 80.6034 12.0324M76 12L76 14L78 14L78 12L76 12z"/>
<path style="fill:#fde1a4; stroke:none;" d="M13 59C19.8139 61.474 16.0446 66.8105 19.2677 71.9992C23.5951 78.9656 31.2626 83.6871 39 85.9568C45.4746 87.856 54.5254 87.856 61 85.9568C66.8747 84.2335 72.4794 81.1734 76.8264 76.8264C80.6893 72.9635 83.4921 68.1288 85.3009 63C100.527 19.8277 36.0468 -8.48972 16.3264 33C12.349 41.368 13 49.9858 13 59z"/>
<path style="fill:#da4855; stroke:none;" d="M85 22L85 26L89 26L89 22L85 22M11 27L11 31L15 31L15 27L11 27z"/>
<path style="fill:#7ea8d1; stroke:none;" d="M34 29L32 31L32 32L34 33C43.8357 27.751 58.3839 31.8254 69 32L69 31L67 29C57.3467 31.2982 43.6533 31.2982 34 29z"/>
<path style="fill:#080707; stroke:none;" d="M35 29L35 30L66 30L35 29z"/>
<path style="fill:#da4855; stroke:none;" d="M33 30L34 31L33 30z"/>
<path style="fill:#080707; stroke:none;" d="M34 30L35 31L34 30M66 30L68 32L66 30z"/>
<path style="fill:#da4855; stroke:none;" d="M67 30L68 31L67 30z"/>
<path style="fill:#080707; stroke:none;" d="M33 31L34 32L33 31z"/>
<path style="fill:#d7bf5c; stroke:none;" d="M34 32L34 33L67 33C60.8194 28.3176 41.3062 29.8404 34 32z"/>
<path style="fill:#080707; stroke:none;" d="M32 32L30 36C39.9793 31.7715 61.0207 31.7715 71 36L69 32C58.3778 34.5289 42.6221 34.5289 32 32z"/>
<path style="fill:#d7bf5c; stroke:none;" d="M31 33L32 34L31 33M69 33L70 34L69 33z"/>
<path style="fill:#da4855; stroke:none;" d="M30 34L31 35L30 34M32 34L33 35L32 34z"/>
<path style="fill:#7ea8d1; stroke:none;" d="M33 34L33 35L68 35L33 34z"/>
<path style="fill:#da4855; stroke:none;" d="M68 34L69 35L68 34M70 34L71 35L70 34z"/>
<path style="fill:#d7bf5c; stroke:none;" d="M29 35L30 36L29 35z"/>
<path style="fill:#7ea8d1; stroke:none;" d="M31 35L32 36L31 35z"/>
<path style="fill:#d7bf5c; stroke:none;" d="M31 36L31 37L70 37C63.1909 31.8414 39.1069 33.6037 31 36z"/>
<path style="fill:#7ea8d1; stroke:none;" d="M69 35L70 36L69 35z"/>
<path style="fill:#d7bf5c; stroke:none;" d="M71 35L72 36L71 35z"/>
<path style="fill:#da4855; stroke:none;" d="M29.6667 36.3333L30.3333 36.6667L29.6667 36.3333M70.6667 36.3333L71.3333 36.6667L70.6667 36.3333z"/>
<path style="fill:#080707; stroke:none;" d="M29.6528 38.0278C24.7554 41.5949 24.9655 66.4567 29.4336 70.2577C35.4804 75.4016 54.3325 72.0128 62 72C65.105 71.9948 69.0187 72.4249 71.5664 70.2577C76.0345 66.4567 76.2446 41.5949 71.3472 38.0278C65.2419 33.5809 46.4854 36.9995 39 37C36.2241 37.0002 32.0456 36.285 29.6528 38.0278z"/>
<path style="fill:#7ea8d1; stroke:none;" d="M28 38L29 39L28 38M31.2284 38.7423C26.0108 41.1796 25.8977 65.4131 29.7423 69.2577C32.0085 71.5239 36.0916 70.9951 39 71C47.4062 71.0141 62.1096 73.8369 69.7716 70.2577C74.9892 67.8204 75.1023 43.5869 71.2577 39.7423C68.9915 37.4761 64.9084 38.0049 62 38C53.5938 37.9859 38.8904 35.1631 31.2284 38.7423M72 38L73 39L72 38z"/>
<path style="fill:#d7bf5c; stroke:none;" d="M27 39L28 40L27 39M73 39L74 40L73 39z"/>
<path style="fill:#da4855; stroke:none;" d="M27 40L28 41L27 40M73 40L74 41L73 40z"/>
<path style="fill:#080707; stroke:none;" d="M31 42L31 43L49 43L31 42M51 42L51 43L57 43L51 42M59 42L59 43L70 43L59 42z"/>
<path style="fill:#da4855; stroke:none;" d="M45 47L45 62L46 62L45 47z"/>
<path style="fill:#080707; stroke:none;" d="M46 47L47 48L46 47z"/>
<path style="fill:#da4855; stroke:none;" d="M47 47L48 48L47 47z"/>
<path style="fill:#d7bf5c; stroke:none;" d="M45 48L45 61L46 61L45 48z"/>
<path style="fill:#fde1a4; stroke:none;" d="M46 48L46 61L58 55L58 54L46 48z"/>
<path style="fill:#d7bf5c; stroke:none;" d="M47 48L48 49L47 48z"/>
<path style="fill:#080707; stroke:none;" d="M48 48L49 49L48 48z"/>
<path style="fill:#da4855; stroke:none;" d="M49 48L50 49L49 48z"/>
<path style="fill:#d7bf5c; stroke:none;" d="M49 49L50 50L49 49z"/>
<path style="fill:#080707; stroke:none;" d="M50 49L51 50L50 49z"/>
<path style="fill:#da4855; stroke:none;" d="M51 49L52 50L51 49z"/>
<path style="fill:#d7bf5c; stroke:none;" d="M51 50L52 51L51 50z"/>
<path style="fill:#080707; stroke:none;" d="M52 50L53 51L52 50z"/>
<path style="fill:#da4855; stroke:none;" d="M53 50L54 51L53 50z"/>
<path style="fill:#d7bf5c; stroke:none;" d="M53 51L54 52L53 51z"/>
<path style="fill:#080707; stroke:none;" d="M54 51L55 52L54 51z"/>
<path style="fill:#da4855; stroke:none;" d="M55 51L56 52L55 51z"/>
<path style="fill:#d7bf5c; stroke:none;" d="M55 52L56 53L55 52z"/>
<path style="fill:#080707; stroke:none;" d="M56 52L57 53L56 52z"/>
<path style="fill:#da4855; stroke:none;" d="M57 52L58 53L57 52z"/>
<path style="fill:#d7bf5c; stroke:none;" d="M57 53L57 56L58 56L57 53z"/>
<path style="fill:#080707; stroke:none;" d="M58 53L59 54L58 53M59 54L60 55L59 54M58 55L59 56L58 55z"/>
<path style="fill:#d7bf5c; stroke:none;" d="M55 56L56 57L55 56z"/>
<path style="fill:#080707; stroke:none;" d="M56 56L57 57L56 56z"/>
<path style="fill:#da4855; stroke:none;" d="M57 56L58 57L57 56z"/>
<path style="fill:#d7bf5c; stroke:none;" d="M53 57L54 58L53 57z"/>
<path style="fill:#080707; stroke:none;" d="M54 57L55 58L54 57z"/>
<path style="fill:#da4855; stroke:none;" d="M55 57L56 58L55 57z"/>
<path style="fill:#d7bf5c; stroke:none;" d="M51 58L52 59L51 58z"/>
<path style="fill:#080707; stroke:none;" d="M52 58L53 59L52 58z"/>
<path style="fill:#da4855; stroke:none;" d="M53 58L54 59L53 58z"/>
<path style="fill:#d7bf5c; stroke:none;" d="M12.6003 60.0718C9.15841 62.5267 12.7201 68.514 16.5556 65.9537C20.3908 63.3936 16.1802 57.5184 12.6003 60.0718M49 59L50 60L49 59z"/>
<path style="fill:#080707; stroke:none;" d="M50 59L51 60L50 59z"/>
<path style="fill:#da4855; stroke:none;" d="M51 59L52 60L51 59z"/>
<path style="fill:#d7bf5c; stroke:none;" d="M47 60L48 61L47 60z"/>
<path style="fill:#080707; stroke:none;" d="M48 60L49 61L48 60z"/>
<path style="fill:#da4855; stroke:none;" d="M49 60L50 61L49 60z"/>
<path style="fill:#080707; stroke:none;" d="M46 61L47 62L46 61z"/>
<path style="fill:#da4855; stroke:none;" d="M47 61L48 62L47 61z"/>
<path style="fill:#d7bf5c; stroke:none;" d="M20 66L20 68L22 68L22 66L20 66z"/>
<path style="fill:#080707; stroke:none;" d="M31 66L31 67L36 67L31 66M38 66L38 67L46 67L38 66M48 66L48 67L52 67L48 66M54 66L54 67L70 67L54 66z"/>
<path style="fill:#da4855; stroke:none;" d="M27 68L28 69L27 68M73 68L74 69L73 68z"/>
<path style="fill:#d7bf5c; stroke:none;" d="M27 69L28 70L27 69M73 69L74 70L73 69z"/>
<path style="fill:#7ea8d1; stroke:none;" d="M28 70L29 71L28 70z"/>
<path style="fill:#d7bf5c; stroke:none;" d="M72 70L73 71L72 70M29 71L30 72L29 71z"/>
<path style="fill:#da4855; stroke:none;" d="M30 71L31 72L30 71M70 71L71 72L70 71z"/>
<path style="fill:#d7bf5c; stroke:none;" d="M71 71L72 72L71 71M79 74L79 78L83 78L83 74L79 74z"/>
<path style="fill:#da4855; stroke:none;" d="M23 85L23 89L27 89L27 85L23 85z"/>
</svg>
